<svg width="35" height="34" viewBox="0 0 35 34" fill="none" xmlns="http://www.w3.org/2000/svg">
<path d="M5.78345 24.0315C8.2843 24.1723 10.4712 23.5876 12.6039 22.0395C10.4495 21.6714 8.95553 20.6862 8.14356 18.6509C8.77148 18.5643 9.32362 18.7267 9.97319 18.4668C7.85126 17.5358 6.47633 16.1392 6.4222 13.725C7.09342 13.7791 7.60226 14.223 8.40339 14.158C6.45468 12.2526 5.85923 10.174 7.08259 7.65148C9.11791 9.98994 11.4997 11.5814 14.4119 12.3284C14.5743 12.3717 14.7259 12.415 14.8883 12.4475C15.6353 12.6207 16.523 12.9888 16.9777 12.9347C17.7572 12.8372 16.9777 11.9387 17.1726 10.7694C17.7897 7.13183 21.7954 5.47542 24.7618 7.60818C25.6279 8.2361 26.3099 8.22527 27.1652 7.84635C27.609 7.65148 28.0638 7.45661 28.5942 7.22926C28.4752 8.26858 27.674 8.84236 27.0353 9.61102C27.7606 9.77342 28.3452 9.56772 29.0165 9.35119C28.7891 10.0982 28.2261 10.5204 27.7173 10.9318C27.1868 11.354 26.9811 11.7979 26.9595 12.4908C26.6347 22.9814 14.7151 31.0902 6.56294 24.6378C5.77263 24.0099 6.54128 24.6378 5.78345 24.0315Z" fill="white"/>
</svg>
